<svg width="24" height="19" viewBox="0 0 24 19" fill="none" xmlns="http://www.w3.org/2000/svg">
<path d="M10.4556 14.8098L14.6458 10.6196L18.8361 14.8098L19.9556 13.6902L15.7654 9.5L19.9556 5.30976L18.8361 4.19025L14.6458 8.38044L10.4556 4.19025L9.33606 5.30976L13.5263 9.5L9.33606 13.6902L10.4556 14.8098Z" fill="black" fill-opacity="0.65"/>
<path d="M22.5625 0H8.83916C8.67788 0.00026758 8.51834 0.0332589 8.37019 0.0969769C8.22203 0.160695 8.08835 0.253814 7.97723 0.370698L0 8.78864V10.2114L7.97723 18.6293C8.08835 18.7462 8.22203 18.8393 8.37019 18.903C8.51834 18.9667 8.67788 18.9997 8.83916 19H22.5625C22.8773 18.9996 23.1792 18.8744 23.4018 18.6518C23.6244 18.4292 23.7496 18.1273 23.75 17.8125V1.1875C23.7496 0.872668 23.6244 0.570836 23.4018 0.348216C23.1792 0.125596 22.8773 0.000366663 22.5625 0ZM22.1667 17.4167H9.00936L1.58333 9.5803V9.4197L9.00936 1.58333H22.1667V17.4167Z" fill="black" fill-opacity="0.65"/>
</svg>
