<svg width="20" height="20" viewBox="0 0 20 20" fill="none" xmlns="http://www.w3.org/2000/svg">
<path d="M20 9.58336H0V10.4167H20V9.58336Z" fill="black"/>
<path d="M9.99918 6.91252C11.5548 6.91252 12.8158 5.65145 12.8158 4.09585C12.8158 2.54025 11.5548 1.27918 9.99918 1.27918C8.44358 1.27918 7.18251 2.54025 7.18251 4.09585C7.18251 5.65145 8.44358 6.91252 9.99918 6.91252Z" fill="black"/>
<path d="M9.99926 13.0875C8.44509 13.0875 7.18259 14.3542 7.18259 15.9042C7.18259 17.4584 8.44509 18.7209 9.99926 18.7209C11.5534 18.7209 12.8159 17.4584 12.8159 15.9042C12.8159 14.3542 11.5534 13.0875 9.99926 13.0875Z" fill="black"/>
</svg>
